<svg width="97" height="97" xmlns="http://www.w3.org/2000/svg" xmlns:sketch="http://www.bohemiancoding.com/sketch/ns"><title>arrow-down</title><path d="M55.624 89.292c0-4.042-3.276-7.319-7.319-7.319-4.042 0-7.319 3.276-7.319 7.319 0 4.042 3.276 7.319 7.319 7.319 4.042 0 7.319-3.276 7.319-7.319zm20.493-20.493c0-4.042-3.276-7.319-7.319-7.319-4.042 0-7.319 3.276-7.319 7.319 0 4.042 3.276 7.319 7.319 7.319 4.042 0 7.319-3.276 7.319-7.319zm-40.986 0c0-4.042-3.276-7.319-7.319-7.319-4.042 0-7.319 3.276-7.319 7.319 0 4.042 3.276 7.319 7.319 7.319 4.042 0 7.319-3.276 7.319-7.319zm61.48-20.493c0-4.042-3.276-7.319-7.319-7.319-4.042 0-7.319 3.276-7.319 7.319 0 4.042 3.276 7.319 7.319 7.319 4.042 0 7.319-3.276 7.319-7.319zm-40.986 0c0-4.042-3.276-7.319-7.319-7.319-4.042 0-7.319 3.276-7.319 7.319 0 4.042 3.276 7.319 7.319 7.319 4.042 0 7.319-3.276 7.319-7.319zm-40.986 0c0-4.042-3.276-7.319-7.319-7.319-4.042 0-7.319 3.276-7.319 7.319 0 4.042 3.276 7.319 7.319 7.319 4.042 0 7.319-3.276 7.319-7.319zm61.48-20.493c0-4.042-3.276-7.319-7.319-7.319-4.042 0-7.319 3.276-7.319 7.319 0 4.042 3.276 7.319 7.319 7.319 4.042 0 7.319-3.276 7.319-7.319zm-40.986 0c0-4.042-3.276-7.319-7.319-7.319-4.042 0-7.319 3.276-7.319 7.319 0 4.042 3.276 7.319 7.319 7.319 4.042 0 7.319-3.276 7.319-7.319zm61.48-20.493c0-4.042-3.276-7.319-7.319-7.319-4.042 0-7.319 3.276-7.319 7.319 0 4.042 3.276 7.319 7.319 7.319 4.042 0 7.319-3.276 7.319-7.319zm-81.973 0c0-4.042-3.276-7.319-7.319-7.319-4.042 0-7.319 3.276-7.319 7.319 0 4.042 3.276 7.319 7.319 7.319 4.042 0 7.319-3.276 7.319-7.319z" fill="#fff" sketch:type="MSShapeGroup"/></svg>