<svg width="92" height="95" xmlns="http://www.w3.org/2000/svg" xmlns:sketch="http://www.bohemiancoding.com/sketch/ns"><title>phone</title><path d="M9.888 3.37c1.334-.771 2.646-1.633 4.05-2.276 5.185-2.377 11.346-.775 14.726 3.789 1.193 1.612 1.806 3.434 2.307 5.361.657 2.531 2.594 9.875 2.824 10.887 1.132 5.026-1.057 10.417-5.751 13.128-.949.549-1.919 1.051-2.95 1.22-1.15.189-6.969 2.832-5.037 9.785 1.305 3.057 2.806 6.067 4.509 9.017 1.63 2.829 3.405 5.522 5.307 8.083l.135.132c5.056 5.153 10.255 1.434 10.995.532.658-.808 1.582-1.397 2.529-1.944 4.696-2.711 10.46-1.911 14.243 1.585.765.705 6.154 6.054 8.019 7.887 1.419 1.396 2.69 2.837 3.489 4.678 2.266 5.208.567 11.346-4.08 14.649-1.259.894-2.661 1.598-3.996 2.369-6.449 3.725-14.14 3.353-20.063-.303-12.084-7.022-22.546-17.197-30.034-30.163-7.636-13.228-11.21-27.69-11.108-41.941.048-6.614 4.229-13.209 9.886-16.475zm74.986 17.341c3.723 0 6.744 3.019 6.744 6.743s-3.021 6.745-6.744 6.745c-3.724 0-6.744-3.022-6.744-6.745 0-3.723 3.02-6.743 6.744-6.743zm-18.071 9.289c2.558 0 4.634 2.074 4.634 4.633s-2.076 4.634-4.634 4.634c-2.559 0-4.633-2.076-4.633-4.634 0-2.558 2.074-4.633 4.633-4.633zm-12.854 9.699c0 1.657-1.344 3-3 3-1.657 0-3-1.344-3-3s1.343-3 3-3c1.656 0 3 1.343 3 3z" sketch:type="MSShapeGroup" fill="#fff"/></svg>