<?xml version="1.0" encoding="UTF-8" standalone="no"?>
<svg width="97px" height="97px" viewBox="0 0 97 97" version="1.1" xmlns="http://www.w3.org/2000/svg" xmlns:xlink="http://www.w3.org/1999/xlink" xmlns:sketch="http://www.bohemiancoding.com/sketch/ns">
    <title>arrow-down</title>
    <description>Created with Sketch (http://www.bohemiancoding.com/sketch)</description>
    <defs></defs>
    <g id="Page-1" stroke="none" stroke-width="1" fill="none" fill-rule="evenodd" sketch:type="MSPage">
        <path d="M55.6237288,89.2915254 C55.6237288,85.2491525 52.3474576,81.9728814 48.3050847,81.9728814 C44.2627119,81.9728814 40.9864407,85.2491525 40.9864407,89.2915254 C40.9864407,93.3338983 44.2627119,96.6101695 48.3050847,96.6101695 C52.3474576,96.6101695 55.6237288,93.3338983 55.6237288,89.2915254 L55.6237288,89.2915254 Z M76.1169492,68.7983051 C76.1169492,64.7559322 72.840678,61.479661 68.7983051,61.479661 C64.7559322,61.479661 61.479661,64.7559322 61.479661,68.7983051 C61.479661,72.840678 64.7559322,76.1169492 68.7983051,76.1169492 C72.840678,76.1169492 76.1169492,72.840678 76.1169492,68.7983051 L76.1169492,68.7983051 Z M35.1305085,68.7983051 C35.1305085,64.7559322 31.8542373,61.479661 27.8118644,61.479661 C23.7694915,61.479661 20.4932203,64.7559322 20.4932203,68.7983051 C20.4932203,72.840678 23.7694915,76.1169492 27.8118644,76.1169492 C31.8542373,76.1169492 35.1305085,72.840678 35.1305085,68.7983051 L35.1305085,68.7983051 Z M96.6101695,48.3050847 C96.6101695,44.2627119 93.3338983,40.9864407 89.2915254,40.9864407 C85.2491525,40.9864407 81.9728814,44.2627119 81.9728814,48.3050847 C81.9728814,52.3474576 85.2491525,55.6237288 89.2915254,55.6237288 C93.3338983,55.6237288 96.6101695,52.3474576 96.6101695,48.3050847 L96.6101695,48.3050847 Z M55.6237288,48.3050847 C55.6237288,44.2627119 52.3474576,40.9864407 48.3050847,40.9864407 C44.2627119,40.9864407 40.9864407,44.2627119 40.9864407,48.3050847 C40.9864407,52.3474576 44.2627119,55.6237288 48.3050847,55.6237288 C52.3474576,55.6237288 55.6237288,52.3474576 55.6237288,48.3050847 L55.6237288,48.3050847 Z M14.6372881,48.3050847 C14.6372881,44.2627119 11.3610169,40.9864407 7.31864407,40.9864407 C3.27627119,40.9864407 0,44.2627119 0,48.3050847 C0,52.3474576 3.27627119,55.6237288 7.31864407,55.6237288 C11.3610169,55.6237288 14.6372881,52.3474576 14.6372881,48.3050847 L14.6372881,48.3050847 Z M76.1169492,27.8118644 C76.1169492,23.7694915 72.840678,20.4932203 68.7983051,20.4932203 C64.7559322,20.4932203 61.479661,23.7694915 61.479661,27.8118644 C61.479661,31.8542373 64.7559322,35.1305085 68.7983051,35.1305085 C72.840678,35.1305085 76.1169492,31.8542373 76.1169492,27.8118644 L76.1169492,27.8118644 Z M35.1305085,27.8118644 C35.1305085,23.7694915 31.8542373,20.4932203 27.8118644,20.4932203 C23.7694915,20.4932203 20.4932203,23.7694915 20.4932203,27.8118644 C20.4932203,31.8542373 23.7694915,35.1305085 27.8118644,35.1305085 C31.8542373,35.1305085 35.1305085,31.8542373 35.1305085,27.8118644 L35.1305085,27.8118644 Z M96.6101695,7.31864407 C96.6101695,3.27627119 93.3338983,0 89.2915254,0 C85.2491525,0 81.9728814,3.27627119 81.9728814,7.31864407 C81.9728814,11.3610169 85.2491525,14.6372881 89.2915254,14.6372881 C93.3338983,14.6372881 96.6101695,11.3610169 96.6101695,7.31864407 L96.6101695,7.31864407 Z M14.6372881,7.31864407 C14.6372881,3.27627119 11.3610169,0 7.31864407,0 C3.27627119,0 0,3.27627119 0,7.31864407 C0,11.3610169 3.27627119,14.6372881 7.31864407,14.6372881 C11.3610169,14.6372881 14.6372881,11.3610169 14.6372881,7.31864407 L14.6372881,7.31864407 Z" id="Imported-Layers" fill="#FFFFFF" sketch:type="MSShapeGroup"></path>
    </g>
</svg>