<?xml version="1.0" encoding="UTF-8" standalone="no"?>
<svg width="92px" height="95px" viewBox="0 0 92 95" version="1.1" xmlns="http://www.w3.org/2000/svg" xmlns:xlink="http://www.w3.org/1999/xlink" xmlns:sketch="http://www.bohemiancoding.com/sketch/ns">
    <title>phone</title>
    <description>Created with Sketch (http://www.bohemiancoding.com/sketch)</description>
    <defs></defs>
    <g id="Page-1" stroke="none" stroke-width="1" fill="none" fill-rule="evenodd" sketch:type="MSPage">
        <g id="phone" sketch:type="MSLayerGroup" fill="#FFFFFF">
            <path d="M9.888,3.37 C11.222,2.599 12.534,1.737 13.938,1.094 C19.123,-1.283 25.284,0.319 28.664,4.883 C29.857,6.495 30.47,8.317 30.971,10.244 C31.628,12.775 33.565,20.119 33.795,21.131 C34.927,26.157 32.738,31.548 28.044,34.259 C27.095,34.808 26.125,35.31 25.094,35.479 C23.944,35.668 18.125,38.311 20.057,45.264 C21.362,48.321 22.863,51.331 24.566,54.281 C26.196,57.11 27.971,59.803 29.873,62.364 L30.008,62.496 C35.064,67.649 40.263,63.93 41.003,63.028 C41.661,62.22 42.585,61.631 43.532,61.084 C48.228,58.373 53.992,59.173 57.775,62.669 C58.54,63.374 63.929,68.723 65.794,70.556 C67.213,71.952 68.484,73.393 69.283,75.234 C71.549,80.442 69.85,86.58 65.203,89.883 C63.944,90.777 62.542,91.481 61.207,92.252 C54.758,95.977 47.067,95.605 41.144,91.949 C29.06,84.927 18.598,74.752 11.11,61.786 C3.474,48.558 -0.1,34.096 0.002,19.845 C0.05,13.231 4.231,6.636 9.888,3.37 L9.888,3.37 L9.888,3.37 Z M84.874,20.710795 C88.5969183,20.710795 91.6180375,23.7297314 91.6180375,27.4537411 C91.6180375,31.1777508 88.5969183,34.1988701 84.874,34.1988701 C81.1499903,34.1988701 78.1299625,31.1766594 78.1299625,27.4537411 C78.1299625,23.7308228 81.1499903,20.710795 84.874,20.710795 L84.874,20.710795 L84.874,20.710795 Z M66.8030827,30.0002259 C69.3609775,30.0002259 71.4374392,32.0744379 71.4374392,34.6330827 C71.4374392,37.1917274 69.3609775,39.2674392 66.8030827,39.2674392 C64.2444379,39.2674392 62.1702259,37.1909775 62.1702259,34.6330827 C62.1702259,32.0751878 64.2444379,30.0002259 66.8030827,30.0002259 L66.8030827,30.0002259 L66.8030827,30.0002259 Z M53.9491465,39.6996847 C53.9491465,41.3562634 52.6055078,42.7001702 50.9491465,42.7001702 C49.2922996,42.7001702 47.9491465,41.3557779 47.9491465,39.6996847 C47.9491465,38.0435914 49.2922996,36.7001702 50.9491465,36.7001702 C52.6055078,36.7001702 53.9491465,38.0431059 53.9491465,39.6996847 Z" id="Shape" sketch:type="MSShapeGroup"></path>
        </g>
    </g>
</svg>